<?xml version="1.0" encoding="utf-8"?>
<!DOCTYPE svg PUBLIC "-//W3C//DTD SVG 1.0//EN" "http://www.w3.org/TR/2001/REC-SVG-20010904/DTD/svg10.dtd">
<svg version="1.0" xmlns="http://www.w3.org/2000/svg" width="274px" height="274px" viewBox="18.5 0 274 274" preserveAspectRatio="xMidYMid meet">
 <g fill="#010101">
  <path d="M24.55 248.65 c-0.54 -0.26 -1.28 -0.91 -1.63 -1.46 l-0.66 -0.97 0 -112.05 c0 -108.77 0.03 -112.08 0.54 -113.05 0.29 -0.54 0.97 -1.26 1.48 -1.57 0.97 -0.57 1.48 -0.57 130.98 -0.57 123.76 0 130.06 0.03 130.92 0.51 0.51 0.26 1.17 0.91 1.43 1.43 0.49 0.86 0.51 6.39 0.51 113.08 0 111.65 0 112.17 -0.57 113.14 -0.31 0.51 -1.03 1.20 -1.57 1.48 -0.97 0.51 -4.71 0.54 -130.72 0.54 -122.93 0 -129.78 -0.03 -130.72 -0.51z m258.79 -4.11 l0.66 -0.60 0 -109.89 c0 -101.87 -0.03 -109.94 -0.49 -110.43 -0.46 -0.49 -4.82 -0.51 -128.24 -0.51 l-127.78 0 -0.54 0.60 c-0.54 0.60 -0.54 2.83 -0.54 110.48 l0 109.89 0.69 0.54 c0.66 0.54 3.05 0.54 128.12 0.54 l127.47 0 0.66 -0.63z"/>
  <path d="M28.54 134 l0 -108.89 126.67 0.06 126.64 0.09 0.09 108.83 0.06 108.80 -126.72 0 -126.72 0 0 -108.89z m249.17 0 l0 -104.89 -122.59 0 -122.59 0 0 103.15 c0 56.71 0.09 103.92 0.17 104.89 l0.20 1.74 122.39 0 122.42 0 0 -104.89z"/>
  <path d="M66.87 216.60 c-1.03 -0.54 -1.28 -1.66 -1.17 -5.11 0.11 -4.05 0.31 -4.28 3.71 -4.28 1.63 0 2.51 -0.14 3.11 -0.49 1.74 -1.03 1.68 -0.29 1.68 -27.20 l0 -24.52 -1.91 -0.91 c-3.71 -1.74 -7.14 -6.05 -8.28 -10.27 -0.66 -2.54 -0.66 -8.56 0 -11.10 1.43 -5.42 5.22 -9.70 9.99 -11.25 0.26 -0.09 0.49 -0.34 0.49 -0.60 0 -0.80 1.80 -1.28 4.82 -1.28 3.23 0 4.20 0.26 4.57 1.23 0.17 0.46 0.66 0.77 1.51 1.03 1.74 0.51 4.60 2.65 5.94 4.40 4.40 5.85 4.97 15.76 1.26 22.06 -1.68 2.88 -4.57 5.34 -7.36 6.28 l-1.31 0.46 0 25.77 c0 17.87 -0.09 26.26 -0.31 27.31 -0.80 3.74 -3.14 6.76 -6.16 7.96 -1.40 0.54 -2.28 0.66 -5.79 0.74 -2.60 0.06 -4.37 -0.03 -4.77 -0.23z m7.34 -4.14 c2.28 -0.69 4.34 -2.83 5.11 -5.39 0.60 -1.88 0.60 -2.34 0.60 -28.51 0 -27.57 0 -27.29 1.14 -27.29 1.08 0 4.14 -1.80 5.71 -3.37 2.63 -2.63 4 -5.97 4 -9.76 0 -6.08 -4 -11.70 -9.13 -12.90 -1.14 -0.26 -1.48 -0.49 -1.60 -1 -0.23 -0.86 -1.46 -0.91 -1.60 -0.06 -0.06 0.43 -0.54 0.74 -1.97 1.23 -4.45 1.48 -7.45 4.97 -8.53 9.90 -1.43 6.39 2.34 13.36 8.36 15.53 l1.77 0.66 0.23 2.08 c0.11 1.17 0.17 13.47 0.14 27.37 l-0.09 25.26 -0.69 1.51 c-1.14 2.54 -2.80 3.48 -6.11 3.48 -1.68 0 -2.17 0.34 -1.80 1.28 0.20 0.57 2.45 0.57 4.45 -0.03z"/>
  <path d="M74.29 149.24 c-1.68 -0.83 -3.91 -3.37 -4.71 -5.34 -0.57 -1.43 -0.66 -2.11 -0.66 -5.77 0 -4.97 0.46 -6.48 2.74 -8.96 2.40 -2.63 6.28 -4 6.68 -2.37 0.09 0.34 0.11 5.65 0.09 11.76 l-0.09 11.13 -1.43 0.09 c-1 0.06 -1.77 -0.11 -2.63 -0.54z m-0.11 -15.07 c-0.31 -0.69 -1.23 2.25 -1.26 3.97 0 0.91 0.23 2.14 0.57 3 l0.57 1.43 0.14 -4 c0.09 -2.20 0.06 -4.17 -0.03 -4.40z"/>
  <path d="M80.06 149.22 c-0.09 -0.37 -0.11 -5.65 -0.09 -11.79 l0.09 -11.13 1.63 0.03 c4.57 0.09 7.91 4.97 7.93 11.56 0 2.85 -0.40 4.85 -1.40 6.96 -1.48 3.11 -3.94 4.99 -6.56 4.99 -1.26 0 -1.46 -0.09 -1.60 -0.63z m4.85 -8.22 c0.26 -0.80 0.46 -2.17 0.46 -3.08 0 -1.66 -0.71 -4.05 -1.20 -4.05 -0.14 0 -0.26 2 -0.26 4.45 0 2.63 0.11 4.37 0.26 4.25 0.14 -0.09 0.49 -0.80 0.74 -1.57z"/>
  <path d="M228.82 211.38 c-2.08 -0.57 -3.65 -1.80 -4.48 -3.51 -0.40 -0.83 -0.80 -1.48 -0.88 -1.51 -0.11 0 -0.54 0.54 -1 1.20 -2.03 2.91 -4.77 4.14 -8.53 3.85 -3.34 -0.26 -5.48 -1.74 -6.56 -4.60 -0.46 -1.17 -0.49 -2.06 -0.37 -7.39 l0.14 -6.05 -0.63 5.42 c-0.37 3 -0.80 6.71 -0.97 8.28 -0.34 3.05 -0.77 4.02 -1.86 4.31 -0.40 0.09 -2.17 0.11 -3.97 0.06 -3.05 -0.09 -3.34 -0.14 -4.05 -0.80 -0.77 -0.71 -0.77 -0.74 -0.63 -3.57 0.09 -1.57 0.54 -6.05 1.03 -9.99 0.49 -3.91 0.94 -7.82 1.06 -8.62 l0.14 -1.51 -1.14 0 c-1.40 0 -2.31 -0.97 -2.31 -2.54 0 -0.94 -0.06 -0.88 -0.69 0.83 -1.20 3.42 -2.40 5.37 -6.91 11.33 -3.94 5.19 -4.11 4.65 1.43 4.65 5.02 0 5.91 0.17 6.42 1.34 0.40 0.88 0.40 6.02 0 7.19 -0.17 0.49 -0.54 1.03 -0.83 1.17 -0.31 0.17 -4.91 0.29 -11.56 0.29 l-11.02 0 -0.69 -0.71 c-0.63 -0.60 -0.71 -0.94 -0.71 -2.77 0 -1.14 0.26 -3.14 0.57 -4.42 0.91 -3.85 2.37 -6.36 8.13 -14.07 3.37 -4.54 4.80 -6.82 5.31 -8.51 0.31 -1.11 0.31 -1.37 -0.17 -2.23 -0.63 -1.17 -1.28 -1.43 -2.40 -0.86 -1.03 0.54 -1.86 1.60 -2.57 3.20 -0.69 1.54 -1.43 1.91 -3.42 1.77 -1.66 -0.14 -4.48 -1.57 -5.62 -2.85 -0.88 -0.94 -0.74 -3.71 0.29 -5.57 1.23 -2.25 3.34 -4.45 5.22 -5.42 2.57 -1.34 3.91 -1.60 7.85 -1.46 3.05 0.09 3.71 0.20 5.14 0.86 3.20 1.48 5.74 4.77 6.11 7.88 0.26 2.08 0.29 2.17 1.03 1.66 0.54 -0.40 2.20 -0.46 12.42 -0.46 11.36 0 11.82 0.03 12.36 0.57 0.80 0.80 0.97 1.74 0.77 4.88 -0.20 3.11 -0.46 3.88 -1.46 4.14 -0.77 0.20 -0.86 0.71 -1.20 7.91 l-0.17 3.91 1.14 0 c0.88 0 1.57 0.29 3.03 1.28 l1.88 1.31 0 -0.86 c0 -0.74 1.74 -10.73 2.17 -12.47 0.14 -0.57 0.03 -0.63 -1.71 -0.74 -1.48 -0.09 -2.03 -0.26 -2.54 -0.74 -0.57 -0.60 -0.63 -0.91 -0.63 -4.20 0 -3.34 0.03 -3.57 0.69 -4.25 l0.69 -0.74 6.71 0 6.68 0 0.83 0.83 c0.69 0.71 0.83 1.08 0.83 2.23 0 2.28 -0.51 6.19 -1.71 12.90 -0.63 3.51 -1.11 6.42 -1.06 6.48 0.06 0.06 0.71 -0.60 1.46 -1.46 1.31 -1.54 1.37 -1.57 2.85 -1.57 1.34 0 1.71 0.14 3.54 1.43 2.37 1.66 2.63 2.06 2.63 3.94 0 1.06 -0.20 1.68 -0.86 2.71 -1.08 1.60 -4.11 4.48 -5.77 5.45 -2.54 1.48 -6.51 1.97 -9.45 1.20z m-10.76 -6.05 c1.06 -1.03 1.20 -1.31 0.86 -1.54 -0.31 -0.20 -0.60 -0.06 -1.08 0.57 -0.60 0.77 -0.83 0.86 -2.20 0.86 -2.34 0 -2.57 -0.49 -2.34 -4.94 0.69 -13.84 0.88 -16.93 1.17 -17.10 0.17 -0.11 0.69 -0.23 1.11 -0.23 0.71 0 0.80 -0.09 0.71 -0.77 l-0.09 -0.80 -9.13 0 -9.13 0 -0.09 0.80 c-0.09 0.74 -0.06 0.77 1.34 0.77 2.17 0 2.31 0.11 2.31 1.88 0 1.77 -0.86 10.10 -1.80 17.32 l-0.66 5.05 1.06 0 c0.77 0 1.11 -0.14 1.23 -0.49 0.06 -0.29 0.69 -5.59 1.34 -11.79 0.94 -8.76 1.31 -11.36 1.66 -11.65 0.31 -0.26 1.43 -0.34 4.02 -0.29 l3.57 0.09 0 1.71 c0 0.94 -0.26 5.39 -0.54 9.90 -0.60 8.96 -0.54 9.68 0.86 11.33 1.54 1.83 3.54 1.60 5.82 -0.71z m16.81 1.34 c1.63 -0.83 3 -1.94 4.05 -3.25 0.71 -0.88 0.80 -1.17 0.54 -1.48 -0.29 -0.37 -0.49 -0.29 -1.11 0.54 -1.88 2.34 -3.14 3.03 -5.71 3.03 -1.74 0 -2.06 -0.09 -2.43 -0.63 -0.77 -1.08 -0.54 -3.94 0.94 -12.07 0.80 -4.25 1.51 -8.59 1.63 -9.65 l0.20 -1.94 -4.11 0.09 -4.11 0.09 0 0.86 0 0.86 2.80 0.09 2.77 0.09 0 1.48 c0 0.83 -0.66 4.82 -1.43 8.90 -0.80 4.08 -1.46 8.08 -1.46 8.88 -0.03 2.03 0.86 3.57 2.74 4.65 0.83 0.49 3.31 0.23 4.68 -0.51z m-44.55 -0.37 c0.11 -0.94 0.88 -0.86 -8.05 -0.80 l-5.97 0.03 0.14 -1.54 c0.17 -2.03 1.31 -3.97 6.51 -10.96 6.79 -9.13 8.05 -12.62 6.11 -16.93 -1.86 -4.17 -6.51 -5.94 -10.73 -4.05 -2.37 1.03 -5.42 4.31 -4.77 5.08 0.37 0.46 1.11 0.54 1.11 0.14 0 -0.14 0.57 -0.88 1.28 -1.68 1.74 -1.94 3.08 -2.43 6.22 -2.31 2.77 0.11 3.60 0.54 4.71 2.43 0.60 1 0.66 1.40 0.54 4.25 -0.09 2.85 -0.17 3.31 -0.97 4.91 -1.14 2.23 -2.57 4.37 -6.31 9.28 -3.42 4.54 -5.25 7.62 -6.05 10.19 -1 3.20 -1.80 2.91 7.79 2.83 l8.33 -0.09 0.09 -0.77z"/>
  <path d="M231.67 176.62 c-1.40 -0.37 -2.94 -1.91 -3.31 -3.28 -0.71 -2.54 -0.11 -5.74 1.28 -6.99 1.43 -1.26 4.60 -1.74 6.96 -1.08 1.17 0.31 2.68 1.74 3.11 2.94 0.17 0.46 0.31 1.68 0.31 2.77 0 1.08 -0.14 2.31 -0.31 2.77 -0.43 1.20 -1.94 2.63 -3.11 2.94 -1.26 0.34 -3.51 0.31 -4.94 -0.06z m3.97 -4.94 c0.40 -0.63 0.40 -0.74 -0.06 -1.40 -0.71 -1.11 -1.71 -1.26 -2.60 -0.37 -0.91 0.88 -0.74 2 0.43 2.60 0.88 0.46 1.54 0.23 2.23 -0.83z"/>
  <path d="M140.97 137.91 c-0.74 -0.66 -0.88 -1.03 -1.03 -2.54 -0.23 -2.63 0.11 -4.31 1.06 -5.28 l0.83 -0.80 65.25 0.06 65.27 0.09 0.69 0.80 c0.63 0.74 0.69 1.06 0.69 3.65 0 1.57 -0.14 3.11 -0.29 3.42 -0.80 1.48 3.23 1.40 -66.76 1.40 l-64.82 0 -0.88 -0.80z m128.61 -3.91 c0 -0.57 -0.20 -0.57 -62.65 -0.57 l-62.65 0 -0.09 0.66 -0.09 0.63 62.73 -0.06 c62.51 -0.09 62.73 -0.09 62.73 -0.66z"/>
  <path d="M75.32 109.51 c-0.26 -0.20 -0.60 -0.63 -0.77 -0.97 -0.46 -0.83 -0.49 -39.62 -0.06 -42.30 0.63 -3.80 3.17 -7.05 6.45 -8.28 1.88 -0.71 6.71 -1.11 9.08 -0.77 2.25 0.34 2.45 0.74 2.45 4.82 0 3.14 -0.06 3.60 -0.57 4.14 -0.34 0.34 -0.63 0.66 -0.66 0.66 -0.03 0.03 -1.40 0.11 -3.03 0.23 -4.62 0.26 -4.14 -2.11 -4.31 21.78 l-0.14 19.98 -0.69 0.54 c-0.57 0.46 -1.14 0.54 -4 0.54 -2.14 -0.03 -3.48 -0.14 -3.77 -0.37z m4.65 -23.09 l0.09 -19.49 0.63 -1.20 c1.06 -1.94 2.08 -2.48 5.08 -2.65 l2.57 -0.14 0 -0.86 0 -0.86 -1.91 0.06 c-2.54 0.09 -4.48 0.94 -5.94 2.57 -2.20 2.51 -2.11 1.66 -2.23 22.60 -0.06 10.27 -0.03 18.84 0.06 19.04 0.09 0.23 0.49 0.40 0.86 0.40 l0.71 0 0.09 -19.47z"/>
  <path d="M172.36 100.92 c-4.45 -1.57 -6.22 -5.68 -5.88 -13.44 0.46 -9.68 3.82 -16.64 9.33 -19.24 1.43 -0.69 1.88 -0.74 5.19 -0.74 2.77 0 3.65 -0.09 3.65 -0.37 0 -0.20 -0.20 -0.43 -0.43 -0.51 -0.34 -0.14 -0.43 -0.71 -0.43 -2.80 0.03 -3.54 0.34 -4.99 1.28 -5.79 0.71 -0.63 0.97 -0.66 5.31 -0.66 4.45 0 4.57 0.03 5.25 0.71 0.94 0.91 0.94 2.65 0.03 7.48 -0.60 3.08 -3.48 19.32 -3.68 20.64 -0.03 0.29 0.46 0.60 1.48 0.94 l1.54 0.51 0.80 -0.80 c0.43 -0.43 1.94 -2.08 3.40 -3.65 l2.60 -2.85 -2.91 -0.17 c-3.77 -0.20 -3.97 -0.40 -3.94 -3.94 0 -3.08 0.57 -6.59 1.20 -7.53 0.29 -0.46 0.86 -0.80 1.40 -0.91 0.51 -0.09 5.22 -0.14 10.45 -0.09 l9.53 0.09 0.57 0.71 c0.54 0.66 0.57 1 0.43 3.85 -0.23 5.19 -0.94 6.45 -7.42 13.41 -1.77 1.86 -2.88 3.20 -2.48 2.91 0.54 -0.40 1.34 -0.49 3.94 -0.49 3.05 0 3.25 0.03 3.91 0.71 0.60 0.57 0.71 0.94 0.71 2.48 0 1 -0.26 3.28 -0.54 5.08 -0.86 4.97 0.20 4.57 -12.30 4.57 -9.82 0 -11.70 -0.14 -11.70 -0.86 0 -0.11 -0.60 0.09 -1.34 0.46 -1.14 0.60 -1.74 0.69 -4.20 0.69 -2.40 0 -3.05 -0.11 -3.82 -0.57 l-0.97 -0.60 -1.54 0.60 c-1.86 0.69 -6.71 0.80 -8.42 0.17z m6.16 -4.02 c0.49 -0.20 1.51 -0.88 2.34 -1.54 1.20 -0.94 1.74 -1.17 2.65 -1.17 1.03 0 1.14 0.09 1.14 0.69 0 0.40 0.34 1.08 0.74 1.57 0.83 1 1.91 1.14 3.20 0.49 1.63 -0.86 4.62 -4.68 4 -5.05 -0.23 -0.14 -0.63 0.29 -1.14 1.20 -1 1.74 -1.86 2.31 -3.28 2.20 l-1.08 -0.09 0.03 -3.14 c0 -2.63 0.37 -5.22 2.34 -16.13 1.28 -7.14 2.43 -13.33 2.51 -13.76 l0.17 -0.80 -2 0 c-1.94 0 -2 0.03 -2.14 0.77 -0.17 0.97 -0.03 1.23 0.69 1.23 0.46 0 0.54 0.20 0.54 1.34 0 0.74 -0.34 3.11 -0.74 5.28 l-0.74 3.94 -1 0 c-0.74 0 -1.17 -0.20 -1.57 -0.71 -1.46 -1.86 -4.20 -2.34 -6.65 -1.17 -3.88 1.80 -6.59 6.51 -7.73 13.47 -0.91 5.59 0.29 9.70 3.28 11.25 1.68 0.86 2.63 0.88 4.45 0.14z m34.11 -1.91 c0.17 -1.14 0.37 -2.23 0.43 -2.43 0.11 -0.31 -0.94 -0.74 -1.31 -0.49 -0.11 0.06 -0.43 0.83 -0.66 1.66 -0.26 0.86 -0.66 1.63 -0.91 1.71 -0.26 0.09 -2.88 0.17 -5.85 0.17 l-5.39 0 0 -1.28 c0 -2.17 0.46 -2.80 8.42 -11.42 5.31 -5.74 6.56 -7.42 6.96 -9.28 0.17 -0.80 0.31 -1.57 0.31 -1.71 0 -0.46 -14.41 -0.37 -14.78 0.09 -0.26 0.34 -0.40 0.83 -0.77 3.14 -0.17 1.03 -0.14 1.06 0.69 1.06 0.77 0 0.88 -0.11 1.23 -1.34 l0.40 -1.37 5.34 -0.09 5.34 -0.06 0 0.94 c0 1.40 -0.97 2.65 -8.13 10.62 -3.54 3.94 -6.68 7.65 -6.96 8.28 -0.31 0.63 -0.66 1.74 -0.74 2.51 l-0.20 1.34 8.13 0 8.13 0 0.34 -2.06z m-5.42 -3.45 c0 -0.03 0.11 -0.49 0.26 -1 0.14 -0.49 0.26 -0.91 0.20 -0.91 -0.03 0 -0.49 0.46 -1.03 1 l-0.97 1 0.77 0 c0.43 0 0.77 -0.03 0.77 -0.09z"/>
  <path d="M175.36 95.33 c-1.80 -0.71 -2.57 -3.42 -2.28 -8.08 0.31 -5.02 1.20 -8.53 2.94 -11.42 1.46 -2.43 2.54 -3.05 5.31 -3.05 2.80 0 3.65 0.40 4.51 2.20 0.60 1.17 0.69 1.77 0.66 4.22 -0.03 3.65 -1 8.79 -2.17 11.36 -0.91 2 -2.97 4.22 -4.37 4.77 -0.91 0.34 -3.77 0.34 -4.60 0z m4.45 -5.99 c1 -1.60 1.86 -4.20 2.43 -7.62 0.49 -2.85 0.40 -3.77 -0.43 -4.51 -0.51 -0.46 -0.57 -0.46 -1.28 0.26 -2.40 2.40 -4.40 11.65 -2.94 13.50 0.40 0.51 1.23 -0.09 2.23 -1.63z"/>
 </g>
 <g fill="#333238">
  <path d="M0 137 l0 -137 155.27 0 155.27 0 0 137 0 137 -155.27 0 -155.27 0 0 -137z m285.13 110.77 c0.54 -0.29 1.26 -0.97 1.57 -1.48 0.57 -0.97 0.57 -1.48 0.57 -112.28 0 -105.89 -0.03 -111.37 -0.51 -112.23 -0.26 -0.51 -0.91 -1.17 -1.43 -1.43 -0.86 -0.49 -7.14 -0.51 -130.06 -0.51 -128.64 0 -129.15 0 -130.12 0.57 -0.51 0.31 -1.20 1.03 -1.48 1.57 -0.51 0.97 -0.54 4.25 -0.54 112.20 l0 111.20 0.66 0.97 c0.34 0.54 1.08 1.20 1.63 1.46 0.94 0.49 7.73 0.51 129.86 0.51 125.18 0 128.89 -0.03 129.86 -0.54z"/>
  <path d="M31.88 239.55 c-0.11 -0.09 -0.20 -47.66 -0.20 -105.75 l0 -105.55 123.44 0 123.44 0 0 105.75 0 105.75 -123.24 0 c-67.79 0 -123.36 -0.09 -123.44 -0.20z m44.70 -24.32 c3.03 -1.17 5.37 -4.22 6.16 -7.96 0.23 -1.06 0.31 -9.45 0.31 -27.31 l0 -25.77 1.31 -0.46 c9.62 -3.28 12.90 -17.61 6.11 -26.63 -1.34 -1.74 -4.20 -3.88 -5.94 -4.40 -0.86 -0.26 -1.34 -0.57 -1.51 -1.03 -0.34 -0.88 -1.34 -1.23 -3.71 -1.23 -2.17 0 -3.97 0.57 -3.97 1.28 0 0.26 -0.23 0.51 -0.49 0.60 -4.77 1.54 -8.59 5.85 -9.99 11.25 -0.60 2.43 -0.60 6.96 0.03 9.39 1.08 4.22 4.54 8.53 8.25 10.27 l1.91 0.91 0 25.37 c0 27.86 0.06 27.03 -1.68 28.06 -0.60 0.34 -1.48 0.49 -3.11 0.49 -3.23 0 -3.60 0.34 -3.71 3.40 -0.14 2.57 0.20 3.77 1.17 4.28 0.40 0.17 1.88 0.29 3.91 0.23 2.57 -0.09 3.62 -0.23 4.94 -0.74z m157.89 -4.77 c2.45 -0.63 3.97 -1.60 6.56 -4.22 3.80 -3.82 3.85 -4.80 0.43 -7.25 -2.68 -1.91 -3.08 -1.88 -4.97 0.40 -1.48 1.77 -3.20 3.20 -3.48 2.88 -0.11 -0.09 0.49 -3.80 1.28 -8.25 1.28 -7.14 2.03 -12.13 2.03 -13.73 0 -0.29 -0.37 -0.91 -0.83 -1.37 l-0.83 -0.83 -5.82 0 -5.85 0 -0.69 0.74 c-0.63 0.66 -0.69 0.97 -0.69 3.40 0 3.51 0.34 3.91 3.28 4.08 1.08 0.06 2 0.14 2 0.20 0 0.03 -0.54 2.80 -1.17 6.16 -0.77 4.05 -1.23 7.22 -1.31 9.39 -0.11 3.17 -0.11 3.34 0.69 4.85 0.91 1.80 2.48 3.03 4.57 3.60 1.86 0.49 2.80 0.49 4.80 -0.06z m-30.83 -0.51 c0.49 -0.49 0.71 -1.11 0.86 -2.34 0.09 -0.94 0.29 -2.57 0.43 -3.68 0.34 -2.40 1.66 -14.93 1.77 -16.55 0.09 -1.06 0.14 -1.14 1.03 -1.23 1.08 -0.11 1.06 -0.74 0.49 6.94 -0.60 8.19 -0.57 11.67 0.17 13.27 1.54 3.40 4.97 4.94 8.65 3.88 1.28 -0.37 1.97 -0.83 3.25 -2.11 0.88 -0.88 1.94 -2.23 2.34 -2.97 0.66 -1.28 0.69 -1.37 0.23 -2.28 -0.26 -0.60 -1.14 -1.43 -2.23 -2.17 -1.80 -1.20 -3.03 -1.48 -3.65 -0.86 -0.17 0.17 -0.37 0.29 -0.46 0.20 -0.09 -0.11 0.29 -7.99 0.57 -11.87 0.11 -1.54 0.26 -2.08 0.57 -2.08 0.94 0 1.48 -1.06 1.68 -3.25 0.23 -2.45 0.09 -3.37 -0.71 -4.17 -0.54 -0.54 -1 -0.57 -11.56 -0.57 l-11.02 0 -0.69 0.71 c-0.66 0.63 -0.71 0.91 -0.71 3.23 0 3.17 0.51 4.05 2.28 4.05 0.60 0 1.17 0.09 1.23 0.23 0.11 0.20 -0.37 4.65 -1.63 15.07 -0.91 7.36 -0.91 7.56 -0.09 8.31 0.88 0.83 1.20 0.88 4 0.91 2.28 0.03 2.57 -0.03 3.20 -0.66z m-11.27 0.11 c0.74 -0.40 1.14 -1.80 1.14 -4.02 0 -2.06 -0.37 -3.23 -1.11 -3.60 -0.26 -0.11 -2.94 -0.29 -5.97 -0.37 l-5.54 -0.14 1.37 -2 c0.74 -1.08 2.34 -3.28 3.57 -4.85 3.05 -4 4.91 -6.91 5.94 -9.39 2.91 -7.02 0.83 -13.96 -5.05 -16.67 -1.28 -0.57 -2.20 -0.77 -4.28 -0.86 -3.03 -0.14 -4.54 0.17 -6.99 1.46 -2.77 1.46 -5.94 5.54 -5.99 7.76 -0.03 1.20 0.49 1.80 2.74 3.14 2.94 1.74 4.11 1.63 5.08 -0.54 0.69 -1.60 1.54 -2.65 2.54 -3.17 0.86 -0.46 2.80 -0.57 3.31 -0.20 1.26 0.86 1.63 3.23 0.83 5.45 -0.51 1.51 -2.37 4.34 -5.54 8.53 -5.22 6.96 -6.82 9.76 -7.73 13.56 -0.77 3.25 -0.74 4.62 0.14 5.48 l0.69 0.71 10.16 0 c6.08 0 10.39 -0.11 10.70 -0.29z m43.38 -34.25 c1.17 -0.31 2.68 -1.74 3.11 -2.94 1.14 -3 -0.77 -6.48 -3.85 -6.94 -2.43 -0.34 -4.60 0.74 -5.57 2.85 -1.86 4.08 1.91 8.25 6.31 7.02z m35.68 -38.39 c1.17 -0.60 1.43 -1.23 1.43 -3.54 0 -1.68 -0.11 -2.11 -0.69 -2.80 l-0.69 -0.80 -64.42 -0.09 -64.39 -0.06 -0.80 0.80 c-1.54 1.51 -1.51 4.91 0.03 6.19 l0.86 0.71 63.90 0 c56.46 0 64.02 -0.06 64.76 -0.43z m-189.09 -29.11 l0.71 -0.69 0 -18.92 c0.03 -10.42 0.14 -19.49 0.26 -20.18 0.40 -2.03 1.03 -2.43 3.77 -2.40 4.05 0.06 4.51 -0.37 4.54 -4.11 0 -3.14 -0.31 -3.62 -2.45 -3.97 -1.94 -0.29 -5.59 0.09 -7.45 0.80 -3.20 1.20 -5.74 4.51 -6.36 8.25 -0.43 2.68 -0.40 39.76 0.06 40.59 0.60 1.14 1.14 1.31 3.74 1.34 2.28 0 2.57 -0.06 3.20 -0.71z m98.44 -8.82 c1.34 -0.66 1.77 -0.77 2.14 -0.49 2.03 1.46 2.11 1.48 4.48 1.40 2.03 -0.09 2.48 -0.20 3.85 -1.03 1.48 -0.94 1.54 -0.94 1.97 -0.40 0.94 1.14 1.34 1.20 11.10 1.20 11.53 0 10.62 0.37 11.47 -4.57 0.71 -4.34 0.71 -4.99 -0.17 -5.85 -0.63 -0.66 -0.91 -0.71 -3.08 -0.71 -2.83 0 -3.71 0.49 -4.20 2.31 l-0.31 1.11 -2.28 0 -2.31 0 0.91 -1.06 c0.51 -0.60 2.80 -3.14 5.11 -5.62 7.19 -7.82 7.91 -8.99 8.22 -13.44 0.14 -2.03 0.09 -2.37 -0.43 -3 l-0.57 -0.71 -8.68 -0.09 c-4.74 -0.06 -9.08 0 -9.59 0.09 -1.26 0.23 -1.80 1.20 -2.23 3.82 -0.54 3.25 -0.51 5.25 0.11 6.02 0.46 0.57 0.88 0.69 2.80 0.77 2.94 0.17 3.71 -0.14 4.42 -1.77 l0.57 -1.28 1.63 0 1.60 0 -1.28 1.37 c-1.60 1.68 -7.65 8.25 -9.45 10.27 l-1.31 1.48 -1.63 -0.86 c-1.06 -0.57 -1.86 -0.80 -2.23 -0.69 -0.54 0.17 -0.57 0.09 -0.40 -1.48 0.17 -1.60 2.23 -13.27 3.77 -21.46 0.88 -4.68 0.88 -5.05 0 -5.91 -0.66 -0.69 -0.83 -0.71 -4.40 -0.71 -3.45 0 -3.77 0.06 -4.45 0.66 -0.88 0.74 -1.26 2.23 -1.28 4.97 0 1.54 0.09 1.77 0.60 1.94 0.54 0.17 0.60 0.34 0.40 1.66 -0.09 0.83 -0.23 1.51 -0.26 1.54 -0.06 0.06 -0.57 -0.11 -1.17 -0.37 -1.71 -0.71 -5.54 -0.46 -7.56 0.49 -4.20 1.97 -7.11 6.42 -8.59 13.07 -1.48 6.68 -0.80 12.93 1.68 15.53 2.06 2.17 3.65 2.80 6.91 2.71 2 -0.09 2.71 -0.23 4.11 -0.91z"/>
  <path d="M74.09 144.62 c-1.54 -2.03 -2.03 -3.57 -2.03 -6.48 0 -2.48 0.09 -2.88 0.91 -4.60 0.51 -1.03 1.20 -2.11 1.51 -2.40 0.57 -0.51 0.57 -0.51 0.60 0.60 0.14 4.17 0.09 13.81 -0.09 13.81 -0.11 0 -0.51 -0.43 -0.91 -0.94z"/>
  <path d="M83.08 138.83 c0.03 -3.71 0.11 -6.99 0.20 -7.31 0.26 -1.03 0.88 -0.49 1.94 1.63 0.97 1.97 1.06 2.34 1.08 4.65 0 2.77 -0.51 4.65 -1.77 6.45 -1.48 2.17 -1.51 2.03 -1.46 -5.42z"/>
  <path d="M176.84 91.93 c-2 -2.20 0.51 -14.01 3.34 -15.76 1.20 -0.71 1.68 -0.69 2.45 0.14 0.91 0.97 1.06 2.68 0.46 6.19 -0.86 5.14 -2.25 8.39 -4.08 9.48 -1.08 0.63 -1.57 0.63 -2.17 -0.06z"/>
 </g>
 <g fill="#fefefe">
  <path d="M26.23 245.49 l-0.69 -0.54 0 -110.74 c0 -108.49 0 -110.74 0.54 -111.34 l0.54 -0.60 128.64 0 c124.27 0 128.64 0.03 129.09 0.51 0.46 0.49 0.49 8.62 0.49 111.28 l0 110.74 -0.66 0.60 -0.66 0.63 -128.32 0 c-125.93 0 -128.32 0 -128.98 -0.54z m254.85 -111.40 l-0.09 -107.97 -125.78 -0.09 -125.81 -0.06 0 108.03 0 108.03 125.87 0 125.87 0 -0.06 -107.94z"/>
  <path d="M68.90 213.38 c-0.09 -0.20 -0.11 -0.94 -0.06 -1.63 l0.09 -1.26 2.28 -0.17 c3.34 -0.26 4.42 -0.91 5.62 -3.54 l0.66 -1.43 0.09 -24.40 c0.03 -13.41 -0.03 -25.34 -0.14 -26.52 l-0.23 -2.08 -1.77 -0.66 c-7.05 -2.54 -10.59 -11.22 -7.82 -19.12 0.83 -2.37 1.83 -3.91 3.51 -5.42 1.71 -1.54 2.63 -2.06 4.80 -2.74 1.17 -0.34 1.60 -0.63 1.66 -1.08 0.09 -0.51 0.29 -0.60 1.63 -0.60 1.34 0 1.51 0.09 1.68 0.66 0.11 0.51 0.46 0.74 1.60 1 4 0.91 7.48 4.68 8.71 9.33 0.23 0.94 0.43 2.88 0.43 4.42 0 4.68 -1.17 7.79 -4 10.62 -1.57 1.57 -4.62 3.37 -5.71 3.37 -1.14 0 -1.14 -0.29 -1.14 27.29 0 26.17 0 26.63 -0.60 28.51 -0.77 2.57 -2.83 4.71 -5.11 5.39 -1.97 0.57 -5.94 0.63 -6.16 0.06z m8.65 -75.09 c0.06 -5.91 -0.03 -10.73 -0.17 -10.96 -0.43 -0.66 -3.17 0.86 -4.85 2.68 -2.14 2.37 -2.71 4.11 -2.71 8.13 0 2.77 0.09 3.54 0.63 4.91 1.14 2.85 4.74 6.11 6.48 5.88 0.57 -0.09 0.57 -0.31 0.63 -10.65z m5.79 10.13 c3.77 -1.91 6.05 -7.51 5.19 -12.64 -0.63 -3.62 -2.28 -6.34 -4.74 -7.76 -0.63 -0.37 -1.54 -0.71 -2.03 -0.77 l-0.86 -0.09 -0.09 10.27 c-0.03 5.65 0 10.56 0.09 10.93 0.20 0.80 0.94 0.83 2.43 0.06z"/>
  <path d="M230.36 208.35 c-1.94 -0.46 -3.54 -2.25 -3.85 -4.37 -0.23 -1.51 0.03 -3.42 1.68 -11.90 0.71 -3.68 1.28 -6.99 1.28 -7.34 0 -0.60 -0.11 -0.63 -2.77 -0.71 l-2.80 -0.09 0 -1.71 0 -1.71 4.97 -0.09 4.97 -0.06 -0.17 2.63 c-0.09 1.46 -0.80 6.19 -1.60 10.50 -0.80 4.31 -1.46 8.31 -1.46 8.85 0 1.57 0.66 2.28 2.08 2.28 1.71 0 3.23 -1.03 5.22 -3.54 l0.88 -1.11 1.31 0.94 c0.74 0.51 1.34 1.06 1.34 1.17 0 0.29 -2.14 2.80 -3.08 3.62 -1.37 1.20 -2.80 2 -4.34 2.45 -1.66 0.49 -2.20 0.51 -3.68 0.17z"/>
  <path d="M198.19 207.95 c-0.09 -0.20 0.31 -3.97 0.86 -8.33 0.54 -4.37 1.14 -9.62 1.34 -11.65 0.40 -4.22 0.43 -4.17 -1.97 -4.17 l-1.51 0 0.09 -1.63 0.09 -1.66 9.99 0 9.99 0 0.09 1.66 c0.09 1.60 0.09 1.63 -0.71 1.63 -0.43 0 -0.94 0.11 -1.11 0.23 -0.20 0.11 -0.40 1.80 -0.51 4.20 -0.09 2.20 -0.31 6.39 -0.49 9.33 -0.29 4.82 -0.29 5.42 0.14 6.08 0.71 1.08 1.66 0.94 2.74 -0.43 0.49 -0.63 1.03 -1.14 1.20 -1.14 0.46 0 2.23 1.48 2.23 1.86 0 0.77 -2.85 3.51 -4.14 4.02 -2.57 0.97 -5.05 -0.11 -6.02 -2.63 -0.43 -1.11 -0.46 -1.91 -0.29 -5.91 0.11 -2.54 0.37 -6.99 0.60 -9.88 0.20 -2.91 0.34 -5.39 0.26 -5.51 -0.26 -0.37 -5.37 -0.29 -5.85 0.14 -0.34 0.26 -0.74 3.03 -1.68 11.84 -0.69 6.31 -1.34 11.59 -1.43 11.73 -0.09 0.11 -0.94 0.31 -1.94 0.40 -1.37 0.14 -1.83 0.11 -1.94 -0.20z"/>
  <path d="M172.53 206.73 c0.54 -4.14 2.20 -7.39 6.76 -13.44 6.05 -7.99 7.14 -9.96 7.28 -13.33 0.09 -1.97 0.03 -2.43 -0.54 -3.40 -0.37 -0.63 -1 -1.37 -1.43 -1.68 -0.97 -0.71 -3.48 -0.97 -4.94 -0.49 -1.34 0.46 -3.11 2 -4.05 3.62 -0.37 0.66 -0.77 1.23 -0.88 1.23 -0.29 0 -2.91 -1.77 -2.91 -1.97 0 -0.57 1.86 -3.23 3 -4.28 1.86 -1.71 3.51 -2.40 6.34 -2.54 5.88 -0.31 9.59 3.11 9.62 8.93 0 4.17 -1.28 6.85 -6.96 14.50 -4.17 5.62 -6.11 8.62 -6.45 10.02 l-0.20 0.83 5.97 -0.09 c3.28 -0.06 6.45 -0.09 7.05 -0.06 l1.08 0.06 -0.09 1.66 -0.09 1.63 -9.36 0.09 -9.36 0.06 0.17 -1.34z"/>
  <path d="M232.59 173.39 c-2.17 -1.17 -1.46 -4.68 1.06 -5.17 2.65 -0.49 4.37 2.83 2.43 4.77 -0.94 0.94 -2.23 1.08 -3.48 0.40z"/>
  <path d="M143.34 134.09 l0.09 -1.51 63.51 0 63.51 0 0 1.43 0 1.43 -63.59 0.09 -63.59 0.06 0.09 -1.48z"/>
  <path d="M77.46 106.35 c-0.09 -0.20 -0.11 -9.16 -0.06 -19.89 0.11 -21.89 0.03 -20.95 2.23 -23.46 1.66 -1.86 3.48 -2.54 6.85 -2.60 l2.71 -0.03 0 1.71 0 1.71 -2.57 0.14 c-3 0.17 -4.02 0.71 -5.08 2.65 l-0.63 1.20 -0.09 19.49 -0.09 19.47 -1.57 0 c-1.06 0 -1.60 -0.11 -1.71 -0.40z"/>
  <path d="M174.65 98.21 c-3.25 -1 -4.74 -3.40 -5.02 -8.16 -0.26 -4.45 1.08 -10.56 3.08 -14.04 1.20 -2.08 3.25 -4.05 5.11 -4.91 2.91 -1.34 6.65 -0.77 8.25 1.28 0.34 0.43 0.66 0.71 0.71 0.66 0.17 -0.14 1.60 -7.65 1.60 -8.28 0 -0.31 -0.26 -0.54 -0.63 -0.60 -0.77 -0.11 -0.91 -0.69 -0.66 -2.40 l0.17 -1.26 2.83 0 c1.54 0 2.88 0.09 2.97 0.23 0.06 0.11 -1.03 6.62 -2.43 14.47 -2.65 14.70 -3.20 18.72 -2.54 19.12 0.57 0.34 1.77 -0.77 2.71 -2.51 0.46 -0.88 0.97 -1.63 1.11 -1.63 0.57 0 2.17 1.23 2.17 1.68 0 0.77 -2.03 3.74 -3.37 4.94 -2.08 1.88 -4.82 2.08 -6.19 0.46 -0.40 -0.46 -0.71 -1.14 -0.71 -1.54 0 -0.37 -0.11 -0.69 -0.29 -0.69 -0.14 0 -1.03 0.60 -1.97 1.31 -2.34 1.83 -4.80 2.48 -6.91 1.86z m4.45 -3.74 c1.40 -0.54 3.45 -2.77 4.37 -4.77 1.03 -2.25 2.14 -7.59 2.17 -10.50 0.03 -2.40 -0.83 -4.48 -2.14 -5.14 -1.28 -0.69 -3.37 -0.54 -4.60 0.29 -2.51 1.68 -4.42 6.68 -4.94 12.87 -0.49 5.59 1.66 8.59 5.14 7.25z"/>
  <path d="M195.31 95.76 c0.09 -1.31 0.40 -2.63 0.74 -3.37 0.34 -0.66 2.74 -3.57 5.37 -6.48 6.99 -7.76 8.93 -10.02 9.39 -10.90 l0.43 -0.83 -4.51 0.09 -4.48 0.09 -0.40 1.37 -0.37 1.34 -1.71 0 -1.68 0 0 -0.91 c0 -1.48 0.57 -4.60 0.91 -4.99 0.23 -0.29 2.14 -0.37 8.39 -0.37 l8.11 0 0 1.14 c0 3.54 -0.80 4.85 -7.28 11.84 -7.11 7.71 -8.42 9.33 -8.42 10.56 0 0.37 0.63 0.43 4.65 0.43 2.54 0 4.80 -0.11 4.99 -0.23 0.20 -0.14 0.57 -0.94 0.86 -1.80 0.54 -1.68 0.94 -1.91 2.85 -1.54 l1 0.17 -0.17 1.34 c-0.09 0.74 -0.31 2.20 -0.49 3.28 l-0.34 1.91 -8.99 0 -9.02 0 0.17 -2.14z"/>
 </g>
</svg>